<svg xmlns="http://www.w3.org/2000/svg" fill="none" viewBox="0 0 65 32" height="32" width="65">
<g clip-path="url(#clip0_0_16)">
<path fill="#1C1C1C" d="M62.0183 23.4667C63.2415 21.1695 63.8701 18.6026 63.8469 16.0001C63.8596 7.21276 56.7028 0.0559341 47.8469 6.10352e-05C39.3593 0.0533944 32.4005 6.71752 31.8469 15.0858C31.8926 14.6185 31.8494 14.1283 31.8469 13.7143H17.0659V20.4191L21.7898 20.5715C20.3955 22.2299 18.3104 23.3347 15.9993 23.3143C15.0371 23.3204 14.0832 23.1354 13.1931 22.7699C12.3029 22.4045 11.4942 21.866 10.8138 21.1856C10.1334 20.5052 9.59482 19.6964 9.2294 18.8063C8.86397 17.9161 8.67892 16.9623 8.68499 16.0001C8.67738 12.0102 11.9409 8.74165 15.9993 8.68578C18.699 8.74165 21.0786 10.2401 22.3993 12.4953L29.8659 8.22863C28.4914 5.75103 26.483 3.68336 24.0464 2.23745C21.6098 0.791543 18.8325 0.0193772 15.9993 6.10352e-05C7.14341 0.0533944 -0.0134176 7.21022 -0.000719222 16.0001C-0.00776493 18.1032 0.401278 20.1869 1.20286 22.1313C2.00444 24.0757 3.18272 25.8423 4.66986 27.3295C6.157 28.8166 7.92363 29.9949 9.86802 30.7965C11.8124 31.5981 13.8962 32.0071 15.9993 32.0001C24.4742 32.0204 31.4228 25.3791 31.9993 17.0667C32.4234 25.3791 39.372 32.0229 47.8469 32.0001C50.9682 32.0204 53.8532 31.1442 56.2278 29.562L58.2088 31.5429L64.1517 25.6001L62.0183 23.4667Z"></path>
<path fill="#F7F7F3" d="M55.1625 17.0667L53.6387 15.6953L48.0006 21.6381L49.6768 23.1619C49.0735 23.2707 48.4612 23.3217 47.8483 23.3143C43.8483 23.3346 40.5822 20.0686 40.534 16C40.5666 14.0703 41.3477 12.2288 42.7124 10.8642C44.0771 9.49948 45.9186 8.71839 47.8483 8.68573C51.9067 8.7416 55.1727 12.0102 55.1625 16C55.1727 16.3835 55.1473 16.7264 55.1625 17.0667Z"></path>
</g>
<defs>
<clipPath id="clip0_0_16">
<rect fill="white" height="32" width="64.154"></rect>
</clipPath>
</defs>
</svg>
