<svg xmlns="http://www.w3.org/2000/svg" fill="none" viewBox="0 0 166 20" height="20" width="166">
<path fill="#1C1C1C" d="M11.4738 10.016C12.5264 9.02714 13.1963 7.62362 13.1963 6.06063C13.1963 4.49763 12.5264 3.09413 11.4738 2.1053C10.5169 1.21216 9.24094 0.669891 7.26326 0.669891H0.213776V20H3.94585V11.4514H5.28557L12.1756 20H16.7689L9.52802 11.1324C10.3255 10.8772 10.9634 10.4944 11.4738 10.016ZM8.92196 7.55983C8.60297 7.91071 8.1245 8.13399 7.03997 8.13399H3.94585V3.98727H7.03997C8.1245 3.98727 8.60297 4.24246 8.92196 4.59333C9.24094 4.94421 9.46422 5.51838 9.46422 6.09254C9.46422 6.6348 9.24094 7.17706 8.92196 7.55983Z"></path>
<path fill="#1C1C1C" d="M23.0515 11.2919H28.9846V7.97453H23.0515V3.9873H30.8984V0.669922H19.3194V20H31.1855V16.6826H23.0515V11.2919Z"></path>
<path fill="#1C1C1C" d="M36.0694 20H39.8015V11.2919H45.7346V7.97453H39.8015V3.9873H47.6484V0.669922H36.0694V20Z"></path>
<path fill="#1C1C1C" d="M55.3015 0.669922H51.5694V20H55.3015V0.669922Z"></path>
<path fill="#1C1C1C" d="M74.0252 13.2696L63.2437 0.669922H60.628V20H64.3601V7.40037L75.1417 20H77.7573V0.669922H74.0252V13.2696Z"></path>
<path fill="#1C1C1C" d="M87.1686 11.2919H93.1016V7.9745H87.1686V3.98727H95.0155V0.669891H83.4365V20H95.3026V16.6826H87.1686V11.2919Z"></path>
<path fill="#1C1C1C" d="M111.445 10.016C112.497 9.02717 113.167 7.62365 113.167 6.06066C113.167 4.49766 112.497 3.09416 111.445 2.10533C110.488 1.21219 109.212 0.669922 107.234 0.669922H100.185V20H103.917V11.4514H105.256L112.115 20H116.74L109.499 11.1324C110.296 10.8772 110.902 10.4945 111.445 10.016ZM108.861 7.55986C108.542 7.91074 108.063 8.13402 106.979 8.13402H103.885V3.9873H106.979C108.063 3.9873 108.542 4.24249 108.861 4.59336C109.18 4.94424 109.403 5.51841 109.403 6.09257C109.435 6.63483 109.212 7.17709 108.861 7.55986Z"></path>
<path fill="#1C1C1C" d="M124.491 7.46417L120.216 0.669922H115.974L122.609 11.26V20H126.341V11.26L132.944 0.669922H128.701L124.491 7.46417Z"></path>
<path fill="#1C1C1C" d="M145.732 11.7384C147.072 9.98403 147.837 8.48484 147.837 6.0925C147.837 2.55184 144.839 0 141.521 0H141.394C138.076 0 135.301 2.45614 135.078 6.0287H138.81C138.81 4.6571 140.022 3.38118 141.457 3.38118C142.925 3.38118 144.105 4.6571 144.105 6.0287C144.105 7.04944 143.977 8.10206 142.574 9.88834L134.28 20H148.539V16.6188H141.681L145.732 11.7384Z"></path>
<path fill="#1C1C1C" d="M158.205 0C154.441 0 151.347 3.0941 151.347 6.92184C151.347 10.8772 154.441 13.7161 158.109 13.7161H158.364L154.696 20H158.811L163.372 12.185C164.393 10.4306 165.286 8.70812 165.286 6.76235C165.286 2.61563 161.809 0 158.205 0ZM158.301 10.3668C156.387 10.3668 154.824 8.80382 154.824 6.88995C154.824 4.97608 156.387 3.41307 158.301 3.41307C160.214 3.41307 161.777 4.97608 161.777 6.88995C161.777 8.80382 160.214 10.3668 158.301 10.3668Z"></path>
</svg>
