<svg xmlns="http://www.w3.org/2000/svg" fill="none" viewBox="0 0 93 32" height="32" width="93">
<path fill="#1C1C1C" d="M0.383621 21.7895H5.25819V16.8996H0.383621V21.7895Z"></path>
<path fill="#1C1C1C" d="M0.383621 31.5541H5.25819V26.6641H0.383621V31.5541Z"></path>
<path fill="#1C1C1C" d="M52.2664 16.8996H67.905V20.1749H62.523V31.5541H57.633V20.1749H52.2664V16.8996Z"></path>
<path fill="#1C1C1C" d="M45.6542 21.1898C45.5158 20.1903 44.7162 19.483 42.4711 19.483C40.8257 19.483 39.9185 19.9596 39.9185 20.913C39.9185 21.4051 40.2721 21.6973 41.0103 21.8203C42.2404 22.0202 45.9925 22.5738 47.4379 22.8198C50.1751 23.2965 51.805 24.4037 51.805 26.987C51.805 31.9539 45.362 32 43.3476 32C38.3807 32 34.7825 31.1235 34.5057 27.0332H40.3029C40.4259 28.1403 41.041 28.8323 43.5936 28.8323C44.8238 28.8323 46.1616 28.5401 46.1616 27.2946C46.1616 26.5103 45.5465 26.2489 43.8397 25.9875L38.9497 25.2494C35.9358 24.8035 34.7671 23.2811 34.7671 21.0976C34.7671 19.1754 35.9512 16.4383 42.3788 16.4383C47.6993 16.4383 50.8978 17.7146 51.2053 21.1744H45.6542"></path>
<path fill="#1C1C1C" d="M27.6166 31.5541H32.4912V16.8996H27.6166V31.5541Z"></path>
<path fill="#1C1C1C" d="M11.9475 16.8996H16.8374V28.1403H25.7562V31.5541H11.9475V16.8996Z"></path>
<path fill="#1C1C1C" d="M75.4553 0H81.0834L87.8801 9.16483H87.9108V0H92.6316V14.6545H87.2342L80.2222 5.39741H80.1761V14.6545H75.4553V0Z"></path>
<path fill="#1C1C1C" d="M65.2602 3.69053H65.214L63.1842 9.22633H67.2899L65.2602 3.69053ZM62.277 0H68.2433L74.548 14.6545H69.3197L68.4432 12.271H62.0463L61.1698 14.6545H55.9416L62.277 0Z"></path>
<path fill="#1C1C1C" d="M48.7295 11.4868C49.7598 11.4868 50.4518 10.9332 50.4518 9.96444C50.4518 8.99567 49.7598 8.5036 48.7295 8.5036H43.4705V11.4868H48.7295ZM43.4705 5.64344H48.3297C49.3754 5.64344 49.8213 5.07448 49.8213 4.39789C49.8213 3.73667 49.3754 3.16771 48.3297 3.16771H43.4705V5.64344ZM38.596 0H50.7286C54.2807 0 54.8958 2.19894 54.8958 3.61365C54.8958 4.98222 54.1423 6.18164 53.0967 6.56608V6.61221C54.6344 6.96588 55.6493 8.21144 55.6493 10.2874C55.6493 12.025 54.8343 14.6545 50.3288 14.6545H38.6113V0H38.596Z"></path>
<path fill="#1C1C1C" d="M24.4644 6.47381H29.1699C30.3539 6.47381 30.9998 5.85872 30.9998 4.8592C30.9998 3.89044 30.3693 3.27535 29.1699 3.27535H24.4644V6.47381ZM19.5899 0H31.3381C34.9363 0 36.2434 1.64536 36.2434 4.09034C36.2434 6.04325 35.2131 7.10428 33.906 7.44257V7.48871C34.8287 7.79625 35.5514 8.53436 35.6744 10.1182C35.9051 13.0091 35.982 13.9318 36.5971 14.6699H31.2304C30.969 14.0394 30.9382 13.1783 30.9382 12.5017C30.9382 10.1951 30.1848 9.79529 28.9546 9.79529H24.4644V14.6852H19.5745V0H19.5899Z"></path>
<path fill="#1C1C1C" d="M0.368301 0H5.25825V8.68813C5.25825 11.0716 6.36541 11.8251 8.61048 11.8251C10.8556 11.8251 11.9627 11.0716 11.9627 8.68813V0H16.8527V9.48775C16.8527 13.532 13.808 15.1158 8.62586 15.1158C3.42837 15.1158 0.399056 13.532 0.399056 9.48775V0"></path>
</svg>
