<svg xmlns="http://www.w3.org/2000/svg" fill="none" viewBox="0 0 126 32" height="32" width="126">
<path fill="#1C1C1C" d="M37.3117 0.139112C30.0205 0.191241 24.0565 8.29488 24.0565 15.3631C24.0565 22.8013 28.4283 31.8746 37.3117 31.8452C46.195 31.8157 50.8058 22.0475 50.8058 15.3631C50.8058 7.97971 44.6029 0.0869841 37.3117 0.139112ZM37.3117 0.416352C43.4141 0.416352 45.0605 7.15607 45.0605 15.3631C45.0605 26.1922 43.0745 31.5347 37.3117 31.5245C31.5488 31.5143 29.674 27.1417 29.674 15.3631C29.674 7.98477 31.2092 0.416352 37.3117 0.416352Z"></path>
<path fill="#1C1C1C" d="M53.2133 15.563C53.1806 7.52041 59.6175 0.396249 65.0663 0.0427867C67.0345 -0.0966529 69.5645 0.804659 71.0416 1.44672C72.1141 1.91295 74.3035 1.2381 74.6923 0H74.9043V10.9555H74.6923C74.6923 10.4884 72.6634 0.318225 65.0663 0.318225C59.4549 0.318225 58.9128 10.1852 58.9128 15.563C58.9128 20.9407 59.0763 31.5868 65.6246 31.5868C68.7968 31.5868 71.1448 30.199 71.7535 27.3913V18.8541H69.0909V18.4905H79.4118V18.8541H76.8662V31.3354H76.6589C76.6589 31.3354 76.245 29.5345 74.145 29.5405C71.461 29.5482 68.9298 31.88 65.8442 31.8517C57.684 31.7766 53.246 23.6055 53.2133 15.563Z"></path>
<path fill="#1C1C1C" d="M4.03917 1.21823H0.825562V0.856995H12.083V1.21823H9.25877L17.3025 23.0625C19.8178 15.3186 21.7664 9.59437 24.3886 1.21823H21.5951V0.856995H27.5391V1.21823H24.8323L15.056 31.6951L4.03917 1.21823Z"></path>
<path fill="#1C1C1C" d="M80.988 24.2336L80.9371 1.18314H77.8782V0.83786H89.1477V1.18314H86.0906L86.1585 26.4567C86.8353 29.3507 88.0385 31.5467 92.1493 31.5794C96.2601 31.6121 99.0547 29.1476 100.093 25.7796V1.18314H96.5941L96.594 0.848031H125.235L125.294 11.9132H125.019C124.488 4.76882 121.731 2.06877 116.91 1.28107C115.251 1.01002 113.51 1.21096 111.31 1.19385V15.3159C113.226 15.4639 115.267 15.3428 116.642 14.1616C117.893 13.0874 118.247 10.6056 118.338 9.59737H118.581V21.8933H118.319C118.243 21.8933 118.142 18.8077 116.642 17.3437C115.133 15.8702 113.21 15.5079 111.31 15.859V30.9444C113.994 30.9444 116.133 31.1717 117.991 30.6624C123.638 29.1143 125.626 24.3502 125.61 19.572H125.924V31.3016H103.459V30.9444H106V1.18314H100.511V25.7796C99.8895 28.133 97.616 32.0264 91.7897 31.9999C86.3725 31.9752 80.9997 29.5329 80.988 24.2336Z"></path>
</svg>
