<svg xmlns="http://www.w3.org/2000/svg" fill="none" viewBox="0 0 132 32" height="32" width="132">
<g clip-path="url(#clip0_0_43)">
<path fill="#1C1C1C" d="M23.8254 29.8712C23.5754 30.8722 23.541 30.973 23.2874 30.973H20.437V31.1689H26.893V30.973H23.9379C23.7468 30.973 23.7788 30.8372 24.0112 29.9224L25.997 22.2119H33.8579L36.2579 30.973H33.0645V31.1689H43.8069V30.973H40.4672L31.5587 0.0771484H31.5045L23.8254 29.8712ZM29.7975 7.44462L33.7969 22.0169H26.0532L29.7975 7.44462ZM116.351 15.7539H118.808C120.985 15.7539 124.196 16.6914 124.196 20.5009V27.3995C124.196 30.2223 125.754 32 128.502 32C131.39 32 131.345 29.0835 131.345 26.9796V24.7623H131.15V26.9796C131.15 29.3727 130.866 31.4509 129.457 31.4509C128.209 31.4509 127.94 30.6766 127.94 27.4297V20.5009C127.94 17.2949 125.342 16.1199 121.329 15.6549C126.327 15.0603 128.209 11.8684 128.209 8.33883C128.209 3.11805 125.798 0.923504 119.589 0.923504L109.748 0.92141V1.1176H112.332C112.518 1.1176 112.607 1.16993 112.607 1.2758V30.8136C112.607 30.9201 112.518 30.973 112.332 30.973H109.748V31.1689H118.798V30.973H116.624C116.437 30.973 116.351 30.9201 116.351 30.8136V15.7539ZM116.351 1.11939H119.003C123.089 1.11939 124.245 4.22728 124.245 8.33883C124.245 12.1884 123.089 15.558 119.003 15.558H116.351V1.11939ZM50.4868 30.8187C50.4548 30.889 50.491 30.973 50.642 30.973L57.6937 30.9748C59.8646 30.9748 62.6669 27.764 62.6669 17.4179V16.3406H62.8631V31.1701H46.0263L58.7817 1.27042C58.8128 1.20104 58.7763 1.1176 58.6256 1.1176L51.1388 1.11939C49.1736 1.11939 46.3199 4.70698 46.3199 14.6769V15.7539H46.1241V0.923504H63.2548L50.4868 30.8187ZM8.80189 1.11939C12.8889 1.11939 14.5529 4.22728 14.5529 8.33883C14.5529 12.1884 12.8889 15.264 8.80189 15.264H6.9423V1.11939H8.80189ZM0.339539 0.92141V1.1176H2.92406C3.11098 1.1176 3.1983 1.16993 3.1983 1.2758V30.8136C3.1983 30.9201 3.11098 30.973 2.92406 30.973H0.339539V31.1689L9.97692 31.1701C16.1843 31.1701 19.4962 28.5844 19.4962 23.3651C19.4962 19.7506 17.5388 16.0718 11.3601 15.3391C16.6087 14.8483 18.4195 11.5517 18.4195 8.33883C18.4195 3.64021 15.5973 0.923504 9.38956 0.923504L0.339539 0.92141ZM8.80189 15.4599C13.4105 15.4599 15.2384 18.6007 15.2384 23.3651C15.2384 27.4754 13.6067 30.9748 9.78074 30.9748L7.21655 30.973C7.02963 30.973 6.9423 30.9201 6.9423 30.8136V15.4575L8.80189 15.4599ZM68.2681 29.8712C68.0168 30.8722 67.9825 30.973 67.7294 30.973H64.8791V31.1689H71.3356V30.973H68.3796C68.1897 30.973 68.2208 30.8372 68.4544 29.9224L70.4393 22.2119H78.3002L80.7008 30.973H77.5062V31.1689H88.2495V30.973H84.9087L76.0007 0.0771484H75.946L68.2681 29.8712ZM74.2401 7.44462L78.2383 22.0169H70.4946L74.2401 7.44462Z" clip-rule="evenodd" fill-rule="evenodd"></path>
<path fill="#1C1C1C" d="M89.7097 29.8712C89.4588 30.8722 89.4256 30.973 89.1723 30.973H86.3213V31.1689H92.7775V30.973H89.8219C89.632 30.973 89.6634 30.8372 89.896 29.9224L91.8818 22.2119H99.7425L102.143 30.973H98.9485V31.1689H109.691V30.973H106.352L97.4439 0.0771484H97.3891L89.7097 29.8712ZM95.6827 7.44462L99.6815 22.0169H91.9369L95.6827 7.44462ZM82.8016 4.05203C82.8016 4.06399 82.8127 4.06848 82.8336 4.06848H83.27V4.13816H81.7803V4.06848H82.1694C82.1912 4.06848 82.2008 4.06399 82.2008 4.05203V2.54384H80.7781V4.05203C80.7781 4.06399 80.788 4.06848 80.8092 4.06848H81.1983V4.13816H79.7093V4.06848H80.1456C80.1668 4.06848 80.1767 4.06399 80.1767 4.05203V1.09248C80.1767 1.08171 80.1668 1.07663 80.1456 1.07663H79.7093V1.00664H81.1983V1.07663H80.8092C80.788 1.07663 80.7781 1.08171 80.7781 1.09248V2.47476H82.2008V1.09248C82.2008 1.08171 82.1912 1.07663 82.1694 1.07663H81.7803V1.00664H83.27V1.07663H82.8336C82.8127 1.07663 82.8016 1.08171 82.8016 1.09248V4.05203ZM86.9377 2.76664C86.8007 2.76664 86.7089 2.70324 86.7089 2.59648C86.7089 2.49988 86.7669 2.50317 86.7669 2.43229C86.7669 2.36051 86.7209 2.32762 86.647 2.32762C86.5707 2.32762 86.4347 2.35304 86.3315 2.66646V4.05203C86.3315 4.06399 86.3411 4.06848 86.3626 4.06848H86.63V4.13816H85.5814V4.06848H85.8479C85.8694 4.06848 85.879 4.06399 85.879 4.05203V2.34167C85.879 2.3312 85.8694 2.32522 85.8479 2.32522H85.5814V2.25554H86.3183L86.3315 2.269V2.56119C86.4101 2.31775 86.58 2.21726 86.7798 2.21726C87.0229 2.21726 87.1808 2.34496 87.1808 2.54264C87.1808 2.66735 87.0845 2.76664 86.9377 2.76664ZM90.8704 4.17614C91.2116 4.17614 91.4862 4.01076 91.6695 3.75745L91.6166 3.71498C91.4452 3.95752 91.2155 4.10765 90.8704 4.10765C90.7442 4.10765 90.6425 4.08373 90.5555 4.00657C90.4119 3.87767 90.3671 3.72664 90.3671 3.1973C90.3671 3.15812 90.3674 3.14735 90.3683 3.11147H91.7096L91.7227 3.0992C91.7227 2.74182 91.4763 2.21726 90.8704 2.21726C90.3112 2.21726 89.891 2.65659 89.891 3.1973C89.891 3.73711 90.3112 4.17614 90.8704 4.17614ZM91.1192 2.38833C91.2221 2.50436 91.2556 2.6838 91.2637 3.04178H90.3695C90.3805 2.6838 90.4257 2.50436 90.5555 2.38833C90.6425 2.31087 90.7442 2.28694 90.8704 2.28694C90.9796 2.28694 91.0501 2.31087 91.1192 2.38833ZM84.1971 4.09001C84.4369 4.09001 84.5924 3.91924 84.5924 3.75595V3.10429C84.4809 3.16859 84.3191 3.16859 84.1761 3.19431C84.0155 3.22362 83.8433 3.30765 83.8433 3.71319C83.8433 4.02272 84.046 4.09001 84.1971 4.09001ZM83.6339 2.60006C83.6339 2.44365 83.831 2.21726 84.2117 2.21726C84.7695 2.21726 85.0455 2.46309 85.0455 3.01517V3.91326C85.0455 4.01883 85.096 4.06249 85.1696 4.06249C85.2557 4.06249 85.3248 3.99132 85.3434 3.94825L85.3891 3.99371C85.361 4.07206 85.2181 4.17614 85.0362 4.17614C84.8299 4.17614 84.6483 4.05681 84.6163 3.89113C84.5505 4.07984 84.3699 4.17614 84.11 4.17614C83.6791 4.17614 83.4021 4.02601 83.4021 3.71319C83.4021 3.25143 83.8953 3.14406 84.0849 3.12881C84.3523 3.10638 84.5924 3.08874 84.5924 2.99423V2.73674C84.5924 2.42152 84.4548 2.28694 84.2117 2.28694C84.09 2.28694 84.0143 2.34257 84.0143 2.47296C84.0143 2.54713 84.0529 2.56986 84.0529 2.64223C84.0529 2.72328 83.9886 2.80044 83.8361 2.80044C83.691 2.80044 83.6339 2.69995 83.6339 2.60006ZM88.8822 2.38623C88.8012 2.31087 88.6914 2.28694 88.5742 2.28694C88.4121 2.28694 88.2631 2.39401 88.16 2.51483V3.83102C88.2222 3.98773 88.4025 4.10765 88.5742 4.10765C88.6914 4.10765 88.8012 4.08433 88.8822 4.00806C89.0159 3.88156 89.1059 3.66115 89.1059 3.20866C89.1059 2.75588 89.0159 2.51244 88.8822 2.38623ZM89.5662 3.20866C89.5662 3.69763 89.1508 4.17614 88.5742 4.17614C88.3977 4.17614 88.2631 4.06608 88.16 3.95962V5.41816C88.16 5.42833 88.1707 5.43341 88.1917 5.43341H88.4581V5.50309H87.4105V5.43341H87.6767C87.6979 5.43341 87.7078 5.42833 87.7078 5.41816V2.34167C87.7078 2.3312 87.6979 2.32522 87.6767 2.32522H87.4105V2.25554H88.1471L88.16 2.269V2.43677C88.2631 2.32941 88.3977 2.21726 88.5742 2.21726C89.1508 2.21726 89.5662 2.71909 89.5662 3.20866ZM95.2855 2.2699C95.3352 2.2699 95.3627 2.24956 95.3681 2.23042H95.4437V2.69696H95.3681C95.3681 2.42571 95.1249 2.28694 94.8946 2.28694C94.6563 2.28694 94.5411 2.39401 94.5411 2.56298C94.5411 2.7804 94.6972 2.89105 95.0516 2.99034C95.4228 3.09472 95.6671 3.27595 95.6671 3.55887C95.6671 3.91685 95.3779 4.17614 94.9153 4.17614C94.6404 4.17614 94.5214 4.04814 94.379 4.04814C94.3473 4.04706 94.3159 4.05566 94.2892 4.07281C94.2624 4.08995 94.2415 4.11483 94.2292 4.14414H94.1526L94.179 3.52358H94.2555C94.2427 3.84896 94.5471 4.10765 94.9153 4.10765C95.1934 4.10765 95.351 3.98025 95.351 3.74309C95.351 3.50653 95.1647 3.41233 94.8246 3.30855C94.4921 3.20806 94.2606 3.07289 94.2606 2.7804C94.2606 2.43378 94.5965 2.21726 94.8946 2.21726C95.089 2.21726 95.1073 2.2699 95.2855 2.2699ZM93.9035 1.61584C93.9035 1.48963 94.0106 1.38676 94.1428 1.38676C94.286 1.38676 94.3922 1.49083 94.3922 1.64335C94.3922 1.86855 94.1888 2.13292 93.9098 2.3007L93.8652 2.25046C94.0668 2.13382 94.2119 1.98997 94.2977 1.78571C94.2606 1.82668 94.2092 1.84552 94.1428 1.84552C94.0106 1.84552 93.9035 1.74324 93.9035 1.61584ZM93.2985 2.76664C93.1621 2.76664 93.0697 2.70324 93.0697 2.59648C93.0697 2.49988 93.128 2.50317 93.128 2.43229C93.128 2.36051 93.0814 2.32762 93.0072 2.32762C92.9313 2.32762 92.7949 2.35304 92.6923 2.66646V4.05203C92.6923 4.06399 92.701 4.06848 92.7225 4.06848H92.9896V4.13816H91.9411V4.06848H92.2087C92.2297 4.06848 92.2398 4.06399 92.2398 4.05203V2.34167C92.2398 2.3312 92.2297 2.32522 92.2087 2.32522H91.9411V2.25554H92.6786L92.6923 2.269V2.56119C92.7716 2.31775 92.9405 2.21726 93.1418 2.21726C93.3826 2.21726 93.5426 2.34496 93.5426 2.54264C93.5426 2.66735 93.4445 2.76664 93.2985 2.76664Z" clip-rule="evenodd" fill-rule="evenodd"></path>
</g>
<defs>
<clipPath id="clip0_0_43">
<rect transform="translate(0.338013)" fill="white" height="32" width="130.991"></rect>
</clipPath>
</defs>
</svg>
