<svg xmlns="http://www.w3.org/2000/svg" fill="none" viewBox="0 0 260 139" height="139" width="260">
<path fill="#919195" d="M156.918 51.1328H155.445V52.5948H156.918V51.1328Z"></path>
<path fill="#919195" d="M160.877 52.7021C158.996 52.7021 157.609 51.2509 157.609 49.4235V49.4018C157.609 47.5852 158.975 46.1016 160.931 46.1016C162.135 46.1016 162.855 46.4995 163.447 47.0906L162.554 48.1229C162.06 47.682 161.565 47.4025 160.92 47.4025C159.846 47.4025 159.071 48.2947 159.071 49.3913V49.4127C159.071 50.5093 159.824 51.4228 160.92 51.4228C161.651 51.4228 162.092 51.1325 162.597 50.6703L163.49 51.5734C162.834 52.272 162.103 52.7129 160.877 52.7129"></path>
<path fill="#919195" d="M167.527 52.7021C165.56 52.7021 164.141 51.2401 164.141 49.4235V49.4018C164.141 47.5852 165.57 46.1016 167.537 46.1016C169.505 46.1016 170.924 47.5636 170.924 49.3805V49.4018C170.924 51.2188 169.494 52.7021 167.527 52.7021ZM169.462 49.4018C169.462 48.3056 168.656 47.4025 167.527 47.4025C166.398 47.4025 165.613 48.2947 165.613 49.3913V49.4127C165.613 50.5093 166.419 51.4228 167.548 51.4228C168.677 51.4228 169.462 50.5306 169.462 49.4343V49.4127V49.4018Z"></path>
<path fill="#919195" d="M177.157 52.5924V48.4215L175.362 51.152H175.329L173.555 48.4537V52.5924H172.18V46.207H173.685L175.362 48.9054L177.038 46.207H178.554V52.5924H177.157Z"></path>
<path fill="#919195" d="M181.363 51.1328H179.891V52.5948H181.363V51.1328Z"></path>
<path fill="#919195" d="M187.445 52.5943L186.864 51.1648H184.166L183.586 52.5943H182.156L184.886 46.166H186.177L188.907 52.5943H187.445ZM185.51 47.8537L184.661 49.9176H186.359L185.51 47.8537Z"></path>
<path fill="#919195" d="M192.325 52.6891C190.605 52.6891 189.562 51.7323 189.562 49.8511V46.207H190.971V49.8189C190.971 50.8617 191.487 51.3994 192.346 51.3994C193.207 51.3994 193.723 50.883 193.723 49.8727V46.2179H195.131V49.8189C195.131 51.7539 194.045 52.7 192.336 52.7"></path>
<path fill="#7AC143" d="M151.327 31.1394C149.349 27.0975 145.909 24.2378 141.932 22.8725C140.244 22.3031 138.438 22.002 136.643 22.002H136.622C134.214 22.002 131.773 22.5396 129.473 23.6683C125.431 25.6676 122.572 29.1076 121.206 33.0636C119.862 37.0196 120.013 41.4912 121.991 45.544L122.045 45.6516C124.044 49.6289 127.463 52.4453 131.386 53.7892C133.085 54.3699 134.869 54.6707 136.686 54.6707C138.804 54.6707 140.954 54.2514 143.007 53.3914L152.144 58.2287L149.618 48.2853C151.37 45.9849 152.499 43.2544 152.875 40.4163C153.273 37.3525 152.789 34.1169 151.327 31.1394ZM149.94 40.0296C149.629 42.373 148.704 44.6088 147.264 46.49L146.404 47.6188L146.759 49.0057L147.651 52.4991L144.393 50.7793L143.157 50.1236L141.867 50.6609C140.212 51.3599 138.46 51.7037 136.686 51.7037C135.213 51.7037 133.751 51.4563 132.343 50.9837C128.989 49.8333 126.259 47.4682 124.678 44.308L124.636 44.2217C123.077 41.0186 122.851 37.3959 123.99 34.0201C125.151 30.6339 127.559 27.893 130.763 26.3125C132.612 25.4098 134.59 24.9473 136.632 24.9473C138.105 24.9473 139.567 25.1838 140.964 25.6676C144.361 26.8285 147.103 29.2366 148.661 32.44C149.833 34.8156 150.263 37.4388 149.93 40.0187"></path>
<path fill="#003F2D" d="M136.342 35.9885L127.764 34.1719C127.764 34.1719 127.603 36.4831 128.033 39.2349C128.517 42.3525 129.129 43.9004 129.129 43.9004C129.129 43.9004 130.43 44.61 133.354 45.7817C135.772 46.749 138.03 47.1144 138.03 47.1144L136.342 35.9993V35.9885Z"></path>
<path fill="#A8D59D" d="M145.156 36.5897C144.672 33.2035 143.876 31.709 143.876 31.709L136.352 35.9874L138.05 47.1245C138.05 47.1245 140.071 46.1355 142.371 44.4262C144.984 42.4804 145.51 41.8463 145.51 41.8463C145.51 41.8463 145.618 39.8037 145.156 36.5789"></path>
<path fill="#7AC143" d="M143.884 31.709C143.884 31.709 142.519 31.2038 139.789 30.6449C137.08 30.0964 135.435 30.1827 135.435 30.1827C135.435 30.1827 133.812 30.5264 131.35 31.9347C129.028 33.2677 127.781 34.1708 127.781 34.1708L136.359 35.9874L143.884 31.709Z"></path>
<path fill="#003F2D" d="M216.841 42.5216H214.745L212.273 35.3624L209.811 42.5216H207.715L203.984 31.5032H206.554L208.822 38.9097L211.284 31.4707H213.337L215.788 38.9097L218.056 31.5032H220.572L216.841 42.5216Z"></path>
<path fill="#003F2D" d="M197.832 38.0038H202.981V35.8644H197.832V33.6394H202.572L201.841 31.5H195.445V42.4433H203.766V40.3042H197.832V38.0038Z"></path>
<path fill="#003F2D" d="M192.806 31.5H190.398V42.4328H192.806V31.5Z"></path>
<path fill="#003F2D" d="M184.297 42.5187H182.168L177.75 31.5H180.405L183.265 39.2076L186.124 31.5H188.715L184.297 42.5187Z"></path>
<path fill="#003F2D" d="M171.707 38.0038H176.867V35.8644H171.707V33.6394H176.458L175.716 31.5H169.32V42.4433H177.651V40.3042H171.707V38.0038Z"></path>
<path fill="#003F2D" d="M164.667 42.4433L162.323 38.9498H160.431V42.4433H158.023V31.5H163.022C165.602 31.5 167.15 32.8544 167.15 35.1119V35.1444C167.15 36.9072 166.193 38.0146 164.807 38.5306L167.483 42.4328H164.667V42.4433ZM164.71 35.2411C164.71 34.2092 163.99 33.6824 162.818 33.6824H160.431V36.8212H162.872C164.043 36.8212 164.72 36.1976 164.72 35.2733V35.2411H164.71Z"></path>
<path fill="#003F2D" d="M114.389 33.6195V42.327H111.981V33.6195H108.648V31.3945H117.711V33.6195H114.389Z"></path>
<path fill="#003F2D" d="M103.025 42.5196C99.8113 42.5196 97.4141 40.0365 97.4141 36.8976V36.8651C97.4141 33.7587 99.7575 31.2109 103.111 31.2109C105.175 31.2109 106.411 31.8988 107.422 32.8986L105.895 34.6614C105.046 33.8985 104.197 33.4254 103.101 33.4254C101.262 33.4254 99.9294 34.9517 99.9294 36.833V36.8651C99.9294 38.7463 101.23 40.3051 103.101 40.3051C104.348 40.3051 105.111 39.8108 105.971 39.0258L107.497 40.5741C106.368 41.7779 105.122 42.5304 103.015 42.5304"></path>
<path fill="#003F2D" d="M90.8782 42.4992C87.9437 42.4992 86.1484 40.8649 86.1484 37.6401V31.3945H88.5565V37.5863C88.5565 39.3708 89.4487 40.2847 90.9215 40.2847C92.394 40.2847 93.2754 39.3924 93.2754 37.6614V31.3945H95.6835V37.565C95.6835 40.8758 93.8239 42.4992 90.8891 42.4992"></path>
<path fill="#003F2D" d="M78.5957 42.3378H74.3281V31.3945H78.5957C82.0357 31.3945 84.4113 33.7488 84.4113 36.8338V36.866C84.4113 39.9406 82.0357 42.3378 78.5957 42.3378ZM81.896 36.866C81.896 34.9313 80.5629 33.5661 78.5957 33.5661H76.7362V40.1554H78.5957C80.5629 40.1554 81.896 38.8227 81.896 36.8876V36.8555V36.866Z"></path>
<path fill="#003F2D" d="M66.7083 42.5196C63.3329 42.5196 60.9141 40.0043 60.9141 36.8976V36.8651C60.9141 33.7587 63.3651 31.2109 66.7404 31.2109C70.1162 31.2109 72.5347 33.7262 72.5347 36.833V36.8651C72.5347 39.9718 70.0837 42.5196 66.7083 42.5196ZM70.0194 36.8651C70.0194 34.9947 68.6433 33.4254 66.7083 33.4254C64.7733 33.4254 63.4297 34.9517 63.4297 36.833V36.8651C63.4297 38.7463 64.8058 40.3051 66.7404 40.3051C68.6755 40.3051 70.0194 38.7788 70.0194 36.8976V36.8651Z"></path>
<path fill="#003F2D" d="M56.9635 42.327L54.6201 38.8227H52.728V42.327H50.3203V31.3945H55.3188C57.8987 31.3945 59.4466 32.7489 59.4466 35.0064V35.0386C59.4466 36.8017 58.4901 37.9196 57.1032 38.4248L59.7799 42.327H56.9635ZM57.0064 35.1245C57.0064 34.0925 56.2864 33.5661 55.1147 33.5661H52.728V36.7049H55.1682C56.3399 36.7049 57.0173 36.0814 57.0173 35.157V35.1245H57.0064Z"></path>
<path fill="#003F2D" d="M44.2354 39.0483H42.408V42.327H40V31.3945H44.4719C47.0841 31.3945 48.6536 32.9425 48.6536 35.1783V35.2108C48.6536 37.7369 46.6864 39.0592 44.2354 39.0592M46.2241 35.2321C46.2241 34.1572 45.4717 33.5766 44.2677 33.5766H42.408V36.9198H44.3107C45.5147 36.9198 46.2134 36.1998 46.2134 35.2642V35.2321H46.2241Z"></path>
<path fill="#1C1C1C" d="M70.6345 92.4343C65.4926 92.4343 64.125 88.2496 64.125 83.217C64.125 78.1025 65.4926 74 70.6345 74C75.7764 74 77.1437 78.1025 77.1437 83.217C77.1437 88.2496 75.7764 92.4343 70.6345 92.4343ZM70.6345 89.918C73.6702 89.918 74.4362 86.8275 74.4362 83.217C74.4362 79.5794 73.6702 76.5437 70.6345 76.5437C67.5985 76.5437 66.8054 79.5794 66.8054 83.217C66.8054 86.8275 67.5985 89.918 70.6345 89.918Z"></path>
<path fill="#1C1C1C" d="M59.5748 92.3778C58.5628 92.3778 57.6875 91.6117 57.6875 90.5727C57.6875 89.5333 58.5628 88.7676 59.5748 88.7676C60.6142 88.7676 61.4892 89.5333 61.4892 90.5727C61.4892 91.6117 60.6142 92.3778 59.5748 92.3778Z"></path>
<path fill="#1C1C1C" d="M49.1385 80.4526C52.5571 80.4526 54.9641 82.7774 54.9641 86.2509C54.9641 89.9704 52.2019 92.4322 48.5094 92.4322C45.5008 92.4322 43.1214 90.7364 42 88.439L44.2154 87.1807C44.8718 88.7124 46.4034 89.8885 48.3727 89.8885C50.6153 89.8885 52.2563 88.4116 52.2563 86.3057C52.2563 84.1724 50.5879 82.7774 48.482 82.7774C47.0051 82.7774 45.5282 83.4338 44.2154 84.4458L42.5743 83.1604L44.1333 74.2168H53.788V76.7602H46.3487L45.3914 81.6561C46.3761 80.9175 47.7163 80.4526 49.1385 80.4526Z"></path>
<mask height="27" width="129" y="68" x="88" maskUnits="userSpaceOnUse" style="mask-type:luminance" id="mask0_5392_103234">
<path fill="white" d="M216.057 68.5762H88.4609V94.6298H216.057V68.5762Z"></path>
</mask>
<g mask="url(#mask0_5392_103234)">
<path fill="#FFBF00" d="M114.717 78.1154L106.61 84.181L109.817 94.4475L101.651 87.9147L93.4856 94.4475L96.6931 84.181L88.5859 78.1154H98.617L101.651 68.3164L104.741 78.1154H114.717ZM140.848 78.1154L132.741 84.181L135.948 94.4475L127.782 87.9147L119.616 94.4475L122.824 84.181L114.717 78.1154H124.748L127.782 68.3164L130.873 78.1154H140.848ZM166.979 78.1154L158.872 84.181L162.08 94.4475L153.914 87.9147L145.747 94.4475L148.955 84.181L140.848 78.1154H150.879L153.914 68.3164L157.003 78.1154H166.979ZM193.11 78.1154L185.003 84.181L188.21 94.4475L180.045 87.9147L171.879 94.4475L175.086 84.181L166.979 78.1154H177.01L180.045 68.3164L183.134 78.1154H193.11Z" clip-rule="evenodd" fill-rule="evenodd"></path>
</g>
<path fill="#FFBF00" d="M211.11 84.1403L219.217 78.0743H209.241L206.151 68.2754L203.117 78.0743H193.086L201.193 84.1403L197.986 94.4065L206.151 87.8736L214.317 94.4065L211.11 84.1403Z"></path>
<path fill="#1C1C1C" d="M67.5035 115.047H66.3538L64.6996 112.645H63.9704V115.047H63.0078V108.608H65.4659C66.8772 108.608 67.4473 109.626 67.4473 110.645C67.4473 111.57 66.8867 112.542 65.8117 112.645L67.5035 115.047ZM65.4565 109.486H63.9704V111.804H65.2321C66.1203 111.804 66.4847 111.327 66.4847 110.645C66.4847 109.972 66.0827 109.486 65.4565 109.486ZM71.8452 111.337V110.682H72.7611V115.047H71.8452V114.309C71.5647 114.813 70.9665 115.159 70.2935 115.159C69.1533 115.159 68.172 114.206 68.172 112.86C68.172 111.561 69.0974 110.57 70.3311 110.57C70.9665 110.57 71.5647 110.841 71.8452 111.337ZM70.4525 114.299C71.1817 114.299 71.8357 113.683 71.8357 112.86C71.8357 112.019 71.135 111.43 70.4339 111.43C69.6862 111.43 69.0974 112.084 69.0974 112.86C69.0974 113.645 69.6862 114.299 70.4525 114.299ZM75.4192 110.682H76.3537V111.449H75.4192V115.047H74.5033V111.449H73.7183V110.682H74.5033V109.047H75.4192V110.682ZM77.6817 109.682C77.3454 109.682 77.0554 109.43 77.0554 109.094C77.0554 108.757 77.3454 108.505 77.6817 108.505C78.0275 108.505 78.308 108.757 78.308 109.094C78.308 109.43 78.0275 109.682 77.6817 109.682ZM78.1398 115.047H77.2239V110.682H78.1398V115.047ZM81.8512 110.57C82.9542 110.57 83.6086 111.309 83.5991 112.552V115.047H82.6832V112.608C82.6832 111.897 82.2532 111.467 81.6925 111.467C81.1224 111.467 80.4308 111.795 80.4308 112.701V115.047H79.5145V110.682H80.4308V111.355C80.6829 110.813 81.3839 110.57 81.8512 110.57ZM88.311 111.318V110.682H89.2269V114.449C89.2269 116.477 88.2924 117.281 86.8249 117.281C86.0024 117.281 85.236 116.851 84.825 116.075L85.6004 115.692C85.8437 116.159 86.3482 116.43 86.8249 116.43C87.7409 116.43 88.311 115.907 88.311 114.524V114.412C88.0119 114.888 87.3856 115.159 86.8063 115.159C85.6194 115.159 84.6378 114.243 84.6378 112.86C84.6378 111.467 85.6194 110.57 86.7969 110.57C87.4045 110.57 88.0119 110.832 88.311 111.318ZM86.9092 114.299C87.6475 114.299 88.3018 113.729 88.3018 112.851C88.3018 111.972 87.5822 111.43 86.9092 111.43C86.1614 111.43 85.5538 112.028 85.5538 112.851C85.5538 113.664 86.1614 114.299 86.9092 114.299ZM94.203 110.682H95.1379V111.449H94.203V115.047H93.2871V111.449H92.5021V110.682H93.2871V109.047H94.203V110.682ZM99.309 111.337V110.682H100.225V115.047H99.309V114.309C99.0289 114.813 98.4307 115.159 97.7577 115.159C96.6175 115.159 95.6359 114.206 95.6359 112.86C95.6359 111.561 96.5613 110.57 97.7949 110.57C98.4307 110.57 99.0289 110.841 99.309 111.337ZM97.9167 114.299C98.6455 114.299 99.2999 113.683 99.2999 112.86C99.2999 112.019 98.5988 111.43 97.8978 111.43C97.15 111.43 96.5613 112.084 96.5613 112.86C96.5613 113.645 97.15 114.299 97.9167 114.299ZM103.351 112.57L105.622 115.047H104.425L102.519 112.972V115.047H101.603V108.309H102.519V112.168L103.949 110.682H105.192L103.351 112.57ZM110.134 112.841C110.134 112.963 110.125 113.094 110.115 113.234H106.639C106.76 113.944 107.284 114.309 107.984 114.309C108.499 114.309 108.975 114.075 109.218 113.673L109.947 114.038C109.564 114.767 108.779 115.159 107.947 115.159C106.685 115.159 105.695 114.234 105.695 112.851C105.695 111.467 106.704 110.57 107.947 110.57C109.19 110.57 110.134 111.467 110.134 112.841ZM106.648 112.496H109.218C109.125 111.813 108.629 111.421 107.956 111.421C107.284 111.421 106.779 111.767 106.648 112.496ZM113.541 110.57C114.644 110.57 115.298 111.309 115.289 112.552V115.047H114.373V112.608C114.373 111.897 113.943 111.467 113.382 111.467C112.812 111.467 112.121 111.795 112.121 112.701V115.047H111.205V110.682H112.121V111.355C112.373 110.813 113.074 110.57 113.541 110.57ZM119.384 109.682C119.048 109.682 118.758 109.43 118.758 109.094C118.758 108.757 119.048 108.505 119.384 108.505C119.73 108.505 120.011 108.757 120.011 109.094C120.011 109.43 119.73 109.682 119.384 109.682ZM119.842 115.047H118.926V110.682H119.842V115.047ZM123.554 110.57C124.657 110.57 125.311 111.309 125.302 112.552V115.047H124.386V112.608C124.386 111.897 123.956 111.467 123.395 111.467C122.825 111.467 122.133 111.795 122.133 112.701V115.047H121.217V110.682H122.133V111.355C122.386 110.813 123.087 110.57 123.554 110.57ZM131.014 115.159C129.64 115.159 128.724 114.234 128.724 113.197H129.677C129.696 113.748 130.21 114.281 131.014 114.281C131.78 114.281 132.229 113.795 132.229 113.262C132.229 112.692 131.715 112.421 131.191 112.28L130.369 112.075C128.995 111.729 128.771 110.916 128.771 110.383C128.771 109.253 129.771 108.495 130.911 108.495C132.07 108.495 132.977 109.225 132.977 110.402H132.023C132.023 109.795 131.547 109.374 130.883 109.374C130.275 109.374 129.733 109.776 129.733 110.365C129.733 110.57 129.799 110.991 130.612 111.206L131.425 111.43C132.509 111.72 133.192 112.271 133.192 113.215C133.192 114.29 132.313 115.159 131.014 115.159ZM138.456 112.841C138.456 112.963 138.447 113.094 138.438 113.234H134.961C135.082 113.944 135.606 114.309 136.307 114.309C136.821 114.309 137.297 114.075 137.54 113.673L138.269 114.038C137.886 114.767 137.101 115.159 136.269 115.159C135.007 115.159 134.017 114.234 134.017 112.851C134.017 111.467 135.026 110.57 136.269 110.57C137.512 110.57 138.456 111.467 138.456 112.841ZM134.97 112.496H137.54C137.447 111.813 136.951 111.421 136.279 111.421C135.606 111.421 135.101 111.767 134.97 112.496ZM141.957 110.57C143.134 110.57 144.125 111.486 144.125 112.87C144.125 114.262 143.144 115.159 141.957 115.159C141.34 115.159 140.733 114.898 140.443 114.402V117.169H139.527V110.682H140.443V111.337C140.733 110.841 141.368 110.57 141.957 110.57ZM141.845 114.299C142.602 114.299 143.2 113.701 143.2 112.879C143.2 112.056 142.602 111.43 141.845 111.43C141.116 111.43 140.452 112 140.452 112.879C140.452 113.757 141.172 114.299 141.845 114.299ZM146.411 110.682H147.346V111.449H146.411V115.047H145.495V111.449H144.71V110.682H145.495V109.047H146.411V110.682ZM152.293 112.841C152.293 112.963 152.284 113.094 152.274 113.234H148.797C148.919 113.944 149.442 114.309 150.143 114.309C150.657 114.309 151.134 114.075 151.377 113.673L152.106 114.038C151.723 114.767 150.938 115.159 150.106 115.159C148.844 115.159 147.853 114.234 147.853 112.851C147.853 111.467 148.863 110.57 150.106 110.57C151.349 110.57 152.293 111.467 152.293 112.841ZM148.807 112.496H151.377C151.284 111.813 150.788 111.421 150.115 111.421C149.442 111.421 148.938 111.767 148.807 112.496ZM158.57 110.57C159.663 110.57 160.252 111.309 160.252 112.552V115.047H159.327V112.599C159.327 111.888 158.953 111.449 158.364 111.449C157.644 111.439 157.27 111.954 157.27 112.87V115.047H156.345V112.599C156.345 111.888 155.971 111.449 155.429 111.449C154.859 111.449 154.28 111.813 154.28 112.701V115.047H153.364V110.682H154.28V111.402C154.457 110.888 155.046 110.57 155.644 110.57C156.28 110.57 156.813 110.907 157.074 111.486C157.448 110.729 158.13 110.57 158.57 110.57ZM163.99 110.57C165.177 110.57 166.159 111.467 166.159 112.86C166.159 114.243 165.168 115.159 163.99 115.159C163.401 115.159 162.766 114.888 162.476 114.393V115.047H161.56V108.309H162.476V111.327C162.766 110.832 163.373 110.57 163.99 110.57ZM163.878 114.299C164.635 114.299 165.233 113.664 165.233 112.851C165.233 112.028 164.635 111.43 163.878 111.43C163.205 111.43 162.485 111.972 162.485 112.851C162.485 113.729 163.149 114.299 163.878 114.299ZM171.415 112.841C171.415 112.963 171.405 113.094 171.396 113.234H167.919C168.041 113.944 168.564 114.309 169.265 114.309C169.779 114.309 170.256 114.075 170.499 113.673L171.228 114.038C170.845 114.767 170.06 115.159 169.228 115.159C167.966 115.159 166.975 114.234 166.975 112.851C166.975 111.467 167.985 110.57 169.228 110.57C170.471 110.57 171.415 111.467 171.415 112.841ZM167.928 112.496H170.499C170.405 111.813 169.91 111.421 169.237 111.421C168.564 111.421 168.059 111.767 167.928 112.496ZM174.635 110.57C174.934 110.57 175.243 110.645 175.383 110.729L175.224 111.598C174.981 111.486 174.757 111.449 174.579 111.449C173.785 111.449 173.411 112.299 173.411 113.477V115.047H172.485V110.682H173.411V111.664C173.635 110.897 174.074 110.57 174.635 110.57ZM181.142 112.253L179.535 114.168H181.937V115.047H178.021V114.617L180.32 111.832C180.684 111.393 180.927 110.935 180.927 110.673C180.927 110.103 180.516 109.729 179.89 109.729C179.264 109.729 178.843 110.094 178.787 110.645L177.965 110.477C178.086 109.505 178.815 108.86 179.899 108.86C181.077 108.86 181.843 109.589 181.843 110.673C181.843 111.178 181.544 111.785 181.142 112.253ZM185.184 115.159C183.427 115.159 182.96 113.729 182.96 112.009C182.96 110.262 183.427 108.86 185.184 108.86C186.942 108.86 187.409 110.262 187.409 112.009C187.409 113.729 186.942 115.159 185.184 115.159ZM185.184 114.299C186.222 114.299 186.484 113.243 186.484 112.009C186.484 110.767 186.222 109.729 185.184 109.729C184.147 109.729 183.876 110.767 183.876 112.009C183.876 113.243 184.147 114.299 185.184 114.299ZM191.529 112.253L189.922 114.168H192.323V115.047H188.407V114.617L190.707 111.832C191.071 111.393 191.314 110.935 191.314 110.673C191.314 110.103 190.903 109.729 190.277 109.729C189.651 109.729 189.23 110.094 189.174 110.645L188.351 110.477C188.473 109.505 189.202 108.86 190.286 108.86C191.464 108.86 192.23 109.589 192.23 110.673C192.23 111.178 191.931 111.785 191.529 112.253ZM196.917 112.953H197.796V113.814H196.917V115.047H195.992V113.814H192.926V113.589L196.655 108.944H196.917V112.953ZM195.992 111.028L194.403 112.953H195.992V111.028Z"></path>
</svg>
