<svg xmlns="http://www.w3.org/2000/svg" fill="none" viewBox="0 0 161 121" height="121" width="161">
<g clip-path="url(#clip0_825_85617)">
<path fill="white" d="M80.6269 120.637C113.762 120.637 140.623 93.7863 140.623 60.6643C140.623 27.5422 113.762 0.691406 80.6269 0.691406C47.492 0.691406 20.6309 27.5422 20.6309 60.6643C20.6309 93.7863 47.492 120.637 80.6269 120.637Z"></path>
<path fill="#0C9ED9" d="M80.6294 117.983C112.294 117.983 137.964 92.3233 137.964 60.6706C137.964 29.018 112.294 3.3584 80.6294 3.3584C48.9644 3.3584 23.2949 29.018 23.2949 60.6706C23.2949 92.3233 48.9644 117.983 80.6294 117.983Z"></path>
<path fill="#0C9ED9" d="M80.6191 0.667969C47.5384 0.667969 20.623 27.4915 20.623 60.668C20.623 93.8444 47.5384 120.668 80.6191 120.668C113.7 120.668 140.615 93.763 140.615 60.668C140.615 27.5729 113.808 0.667969 80.6191 0.667969ZM80.6191 119.229C48.2446 119.229 21.9539 92.9214 21.9539 60.668C21.9539 28.4146 48.2446 2.10688 80.6191 2.10688C112.994 2.10688 139.203 28.4146 139.203 60.668C139.203 92.9214 112.994 119.229 80.6191 119.229Z"></path>
<path fill="#231F20" d="M70.0534 86.5421C70.8682 86.0263 71.7101 85.4019 71.7101 84.4788C71.7101 83.6643 71.1941 83.2571 70.4879 83.2571C69.5645 83.2571 69.1571 83.963 69.1571 84.9132H67.7176C67.7176 83.067 68.7497 81.9268 70.5966 81.9268C72.1447 81.9268 73.3669 82.7412 73.3669 84.2888C73.3669 85.8363 72.2262 86.6507 71.2212 87.3838C70.5151 87.8996 69.7818 88.524 69.6731 88.9313H73.4755V90.2616H67.7176C67.609 88.4969 68.5324 87.6824 70.0534 86.5421Z"></path>
<path fill="#231F20" d="M74.3652 86.2435C74.3652 83.1485 75.6961 81.9268 77.3528 81.9268C79.0096 81.9268 80.3404 83.067 80.3404 86.2435C80.3404 89.42 79.0096 90.5602 77.3528 90.5602C75.6961 90.5602 74.3652 89.3385 74.3652 86.2435ZM78.6837 86.2435C78.6837 85.2118 78.575 83.2571 77.3528 83.2571C76.1306 83.2571 76.022 85.2118 76.022 86.2435C76.022 87.2752 76.1306 89.2299 77.3528 89.2299C78.575 89.2299 78.6837 87.2752 78.6837 86.2435Z"></path>
<path fill="#231F20" d="M83.7165 86.5421C84.5312 86.0263 85.3732 85.4019 85.3732 84.4788C85.3732 83.6643 84.8572 83.2571 84.151 83.2571C83.2276 83.2571 82.8202 83.963 82.8202 84.9132H81.2721C81.2721 83.067 82.3041 81.9268 84.151 81.9268C85.6991 81.9268 86.9213 82.7412 86.9213 84.2888C86.9213 85.8363 85.7806 86.6507 84.7757 87.3838C84.0695 87.8996 83.3362 88.524 83.2276 88.9313H87.03V90.2616H81.2721C81.2449 88.4969 82.1683 87.6824 83.7165 86.5421Z"></path>
<path fill="#231F20" d="M91.3376 90.5602V88.4697H87.834V87.1123L90.903 81.9268H92.6413V87.2209L93.8092 87.1937V88.4155H92.6684L92.6413 90.5602H91.3376ZM91.229 85.2118C91.229 84.3159 91.229 84.6145 91.229 84.0173C89.8167 86.1078 89.8167 86.1078 89.1105 87.2209L91.229 87.2752V85.2118Z"></path>
<path fill="white" d="M43.935 35.4965L39.1005 35.3879L38.4758 36.4195L41.9795 38.5643L40.9474 40.3019L32.3105 34.9535L34.3747 31.6684C35.5969 29.6051 37.2536 29.1978 38.8018 30.1209C40.1326 30.9354 40.4585 32.2657 40.1326 33.406H45.1572L43.935 35.4965ZM37.0635 35.6051L37.987 34.0575C38.6116 33.1345 38.503 32.4014 37.7697 31.9942C37.0635 31.587 36.4388 31.8856 35.8142 32.7001L34.8907 34.2476C34.8093 34.2747 37.0635 35.6051 37.0635 35.6051Z"></path>
<path fill="white" d="M37.7715 26.7623L42.4973 21.5225L43.7195 22.6627L40.3245 26.4636L42.0627 28.1197L45.159 24.6175L46.3812 25.7578L43.2849 29.26L45.2404 30.9976L48.7441 27.0881L49.9663 28.2283L45.1318 33.5768L37.7715 26.7623Z"></path>
<path fill="white" d="M46.915 24.2124C45.0681 21.7418 45.1767 18.8639 47.3224 17.1264C49.6853 15.3888 51.6408 15.9861 52.863 17.3436L51.3149 18.5653C50.6087 17.9409 49.5766 17.7508 48.4359 18.5653C46.8878 19.787 47.4039 21.5517 48.4359 22.882C49.5766 24.321 51.0976 25.1354 52.6457 23.9137C53.8679 22.9906 53.7864 21.959 53.3519 21.1445L54.9 19.9228C55.932 21.6603 55.5247 24.0223 53.7593 25.3798C51.5322 27.2802 48.9791 26.7644 46.915 24.2124Z"></path>
<path fill="white" d="M54.6221 18.3398C53.2912 15.6792 53.9974 12.6927 56.8763 11.3624C59.7553 10.0321 62.4169 11.2538 63.7478 13.9416C64.97 16.5208 64.2638 19.4801 61.4935 20.8104C58.6146 22.1407 55.8443 20.919 54.6221 18.3398ZM61.9009 14.7561C61.0861 13.1 59.4294 12.0954 57.6911 13.0185C55.9529 13.833 55.627 15.6792 56.4689 17.4439C57.2837 18.9914 58.8318 20.0231 60.6787 19.1814C62.4169 18.2312 62.6342 16.385 61.9009 14.7561Z"></path>
<path fill="white" d="M64.0996 8.38308L65.9465 7.97584L70.0476 11.6681L72.0031 6.64552L73.85 6.23828L75.9956 16.0935L74.1488 16.5007L72.7093 9.71339L71.2698 13.7315L69.7217 14.0301L66.7341 11.0437L68.1736 17.7224L66.3267 18.1297C66.2452 18.3469 64.0996 8.38308 64.0996 8.38308Z"></path>
<path fill="white" d="M77.1171 6.01758L79.0726 6.12617L82.1688 10.7416L85.2379 6.34337L87.1934 6.45197L86.8947 16.633H84.9392L85.1564 9.76418L82.7935 13.2664H81.2454L78.964 9.62844L78.7467 16.4972H76.8184L77.1171 6.01758Z"></path>
<path fill="white" d="M90.1921 6.85742L97.0635 8.51353L96.6561 10.1696L91.713 8.94792L91.0883 11.3099L95.5969 12.4502L95.1895 14.1063L90.6809 12.966L90.0563 15.4366L95.0808 16.6583L94.6734 18.3144L87.6934 16.6583C87.8292 16.7126 90.1921 6.85742 90.1921 6.85742Z"></path>
<path fill="white" d="M99.5251 9.30371L101.182 10.0096L102.513 17.8286L105.283 11.8829L107.021 12.6974L102.811 21.9553L101.073 21.1408L99.8511 13.3218L97.1894 19.2675L95.4512 18.453L99.5251 9.30371Z"></path>
<path fill="white" d="M109.5 14.2422L112.379 16.3055C114.742 18.0431 115.367 20.8123 113.52 23.3915C111.673 25.8621 108.794 26.2693 106.322 24.5318L103.443 22.4684L109.5 14.2422ZM107.246 22.7671C108.984 23.9888 110.532 23.9888 111.972 22.2512C113.112 20.7037 112.895 19.0748 111.048 17.7445L110.125 17.0386L106.431 22.1426L107.246 22.7671Z"></path>
<path fill="white" d="M118.14 20.9248L122.974 26.1646L121.752 27.3049L118.248 23.6126L116.51 25.2687L119.688 28.6624L118.466 29.8026L115.288 26.409L113.441 28.1465L116.945 31.9474L115.722 33.1691L110.779 27.9293C110.752 27.9022 118.14 20.9248 118.14 20.9248Z"></path>
<path fill="white" d="M124.604 28.1182L126.56 31.1046C128.108 33.5752 127.701 36.453 125.012 38.082C122.432 39.7381 119.553 39.005 117.923 36.4259L116.076 33.4394L124.604 28.1182ZM119.363 35.2041C120.503 37.0503 122.024 37.5661 123.871 36.4259C125.528 35.3942 125.935 33.7652 124.686 31.8105L124.061 30.7788L118.711 34.1725L119.363 35.2041Z"></path>
<path fill="white" d="M119.842 45.7607V65.3897H131.982V60.9644H124.269V57.6793H128.37V53.4711H124.269V50.0775H131.982V45.7607H119.842Z"></path>
<path fill="white" d="M39.3002 61.2931C41.3643 61.2931 43.2112 60.1528 44.1346 58.5239L47.421 61.2931C45.5741 63.8723 42.5865 65.5012 39.1915 65.5012C33.6509 65.5012 29.1152 60.9945 29.1152 55.4288C29.1152 49.8632 33.6238 45.3564 39.1915 45.3564C42.5865 45.3564 45.5741 47.0126 47.421 49.5646L44.1346 52.3338C43.1026 50.6777 41.3643 49.5646 39.3002 49.5646C36.1225 49.5646 33.7596 52.2252 33.7596 55.3202C33.7596 58.4153 36.1225 61.2931 39.3002 61.2931Z"></path>
<path fill="white" d="M62.0012 45.7607H66.4283V65.3897H62.0012V57.6793H54.2064V65.3897H49.7793V45.7607H54.2064V53.4711H62.0012V45.7607Z"></path>
<path fill="white" d="M84.8259 55.5343C84.8259 52.3578 82.463 49.7787 79.2853 49.7787C76.1076 49.7787 73.7447 52.4393 73.7447 55.5343C73.7447 58.6293 76.1076 61.29 79.2853 61.29C82.463 61.29 84.8259 58.7108 84.8259 55.5343ZM69.209 55.5343C69.209 49.9959 73.7175 45.4619 79.2853 45.4619C84.8531 45.4619 89.3616 49.9687 89.3616 55.5343C89.3616 61.0999 84.8531 65.6067 79.2853 65.6067C73.7175 65.6067 69.209 61.0728 69.209 55.5343Z"></path>
<path fill="white" d="M96.5501 45.5771H92.123V65.2876H96.5501V45.5771Z"></path>
<path fill="white" d="M109.37 61.2931C111.435 61.2931 113.282 60.1528 114.205 58.5239L117.491 61.2931C115.644 63.8723 112.657 65.5012 109.262 65.5012C103.721 65.5012 99.1855 60.9945 99.1855 55.4288C99.1855 49.8632 103.694 45.3564 109.262 45.3564C112.657 45.3564 115.644 47.0126 117.491 49.5646L114.205 52.3338C113.173 50.6777 111.435 49.5646 109.37 49.5646C106.193 49.5646 103.83 52.2252 103.83 55.3202C103.83 58.4153 106.193 61.2931 109.37 61.2931Z"></path>
<path fill="white" d="M132.007 69.8203H29.5605V74.0293H132.007V69.8203Z"></path>
</g>
<defs>
<clipPath id="clip0_825_85617">
<rect transform="translate(0.623047 0.667969)" fill="white" height="120" width="160"></rect>
</clipPath>
</defs>
</svg>
