<svg xmlns="http://www.w3.org/2000/svg" fill="none" viewBox="0 0 989 480" height="480" width="989">
<path fill="#003F2D" d="M288.63 402.174L280.546 391.082L277.538 394.219V402.174H271.814V376.142H277.538V387.525L288.113 376.142H295.033L284.426 387.202L295.518 402.206H288.63V402.174Z"></path>
<path fill="#003F2D" d="M319.027 402.628C310.975 402.628 305.219 396.645 305.219 389.24V389.175C305.219 381.77 311.072 375.69 319.092 375.69C327.111 375.69 332.9 381.673 332.9 389.078V389.143C332.9 396.548 327.047 402.628 319.027 402.628ZM326.917 389.143C326.917 384.68 323.651 380.961 319.027 380.961C314.403 380.961 311.201 384.616 311.201 389.078V389.143C311.201 393.606 314.467 397.324 319.092 397.324C323.716 397.324 326.917 393.67 326.917 389.208V389.143Z"></path>
<path fill="#003F2D" d="M364.821 402.175L362.428 396.322H351.4L349.007 402.175H343.154L354.311 375.949H359.582L370.738 402.175H364.756H364.821ZM356.93 382.837L353.47 391.278H360.39L356.93 382.837Z"></path>
<path fill="#003F2D" d="M382.25 402.174V376.142H387.974V396.968H400.974V402.174H382.25Z"></path>
<path fill="#003F2D" d="M432.078 402.175L429.685 396.322H418.658L416.265 402.175H410.412L421.569 375.949H426.84L437.996 402.175H432.014H432.078ZM424.22 382.837L420.76 391.278H427.68L424.22 382.837Z"></path>
<path fill="#003F2D" d="M488.476 402.175V385.165L481.136 396.289H480.974L473.73 385.262V402.143H468.104V376.111H474.28L481.136 387.138L487.991 376.111H494.168V402.143H488.476V402.175Z"></path>
<path fill="#003F2D" d="M527.215 402.175L524.822 396.322H513.795L511.402 402.175H505.549L516.705 375.949H521.976L533.133 402.175H527.15H527.215ZM519.325 382.837L515.865 391.278H522.785L519.325 382.837Z"></path>
<path fill="#003F2D" d="M556.453 381.413V402.174H550.729V381.413H542.807V376.142H564.376V381.413H556.453Z"></path>
<path fill="#003F2D" d="M587.982 381.413V402.174H582.259V381.413H574.336V376.142H595.905V381.413H587.982Z"></path>
<path fill="#003F2D" d="M623.555 402.174L617.961 393.831H613.466V402.174H607.742V376.142H619.642C625.787 376.142 629.473 379.376 629.473 384.744V384.809C629.473 389.012 627.21 391.664 623.879 392.893L630.249 402.206H623.555V402.174ZM623.652 385.035C623.652 382.577 621.938 381.316 619.157 381.316H613.466V388.786H619.254C622.036 388.786 623.652 387.299 623.652 385.1V385.035Z"></path>
<path fill="#003F2D" d="M642.051 402.174V376.142H661.68V381.251H647.742V386.522H660.031V391.632H647.742V397.097H661.874V402.206H642.051V402.174Z"></path>
<path fill="#003F2D" d="M683.667 402.532C679.722 402.532 675.744 401.141 672.607 398.36L676.003 394.318C678.363 396.258 680.789 397.487 683.764 397.487C686.092 397.487 687.515 396.549 687.515 395.029V394.965C687.515 393.509 686.61 392.766 682.276 391.666C677.038 390.34 673.642 388.885 673.642 383.711V383.646C673.642 378.925 677.426 375.788 682.761 375.788C686.545 375.788 689.779 376.985 692.43 379.087L689.455 383.388C687.159 381.771 684.863 380.833 682.697 380.833C680.53 380.833 679.334 381.835 679.334 383.097V383.161C679.334 384.875 680.465 385.425 684.96 386.589C690.231 387.98 693.207 389.855 693.207 394.415V394.48C693.207 399.654 689.261 402.564 683.635 402.564L683.667 402.532Z"></path>
<path fill="#003F2D" d="M714.905 402.532C710.96 402.532 706.982 401.141 703.846 398.36L707.241 394.318C709.602 396.258 712.027 397.487 715.002 397.487C717.331 397.487 718.753 396.549 718.753 395.029V394.965C718.753 393.509 717.848 392.766 713.515 391.666C708.276 390.34 704.881 388.885 704.881 383.711V383.646C704.881 378.925 708.664 375.788 714 375.788C717.783 375.788 721.017 376.985 723.669 379.087L720.694 383.388C718.398 381.771 716.102 380.833 713.935 380.833C711.768 380.833 710.572 381.835 710.572 383.097V383.161C710.572 384.875 711.704 385.425 716.199 386.589C721.47 387.98 724.445 389.855 724.445 394.415V394.48C724.445 399.654 720.5 402.564 714.873 402.564L714.905 402.532Z"></path>
<path fill="#003F2D" d="M592.607 311.823H843.322L863.824 251.222H613.142L592.607 311.823Z"></path>
<path fill="white" d="M821.558 297.757L814.573 287.344H808.947V297.757H801.768V265.193H816.675C824.339 265.193 828.964 269.235 828.964 275.929V276.026C828.964 281.297 826.118 284.596 821.979 286.115L829.934 297.757H821.558ZM821.72 276.285C821.72 273.213 819.586 271.628 816.093 271.628H808.979V280.974H816.255C819.747 280.974 821.752 279.098 821.752 276.349V276.252L821.72 276.285Z"></path>
<path fill="white" d="M770.594 297.757V265.193H795.17V271.563H777.708V278.16H793.069V284.531H777.708V291.354H795.397V297.725H770.594V297.757Z"></path>
<path fill="white" d="M756.66 297.757L740.879 277.061V297.757H733.797V265.193H740.394L755.657 285.242V265.193H762.739V297.757H756.627H756.66Z"></path>
<path fill="white" d="M719.855 297.757L704.074 277.061V297.757H696.992V265.193H703.589L718.852 285.242V265.193H725.934V297.757H719.823H719.855Z"></path>
<path fill="white" d="M681.695 297.757V265.193H688.874V297.757H681.695Z"></path>
<path fill="white" d="M664.915 297.983H658.674L651.333 276.673L643.992 297.983H637.751L626.627 265.16H634.291L641.05 287.215L648.358 265.063H654.502L661.81 287.215L668.569 265.16H676.071L664.947 297.983H664.915Z"></path>
<path fill="#7AC143" d="M607.193 251.222H142.435L121.9 311.823H586.593L607.193 251.222Z"></path>
<path fill="#003F2D" d="M152.846 275.348L147.769 271.273C151.003 266.875 154.14 264.482 159.993 264.482C166.978 264.482 171.279 268.525 171.279 274.669C171.279 280.166 168.465 282.915 162.644 287.41L157.309 291.549H171.602V297.79H147.316V292.066L158.247 283.109C162.321 279.746 163.906 277.967 163.906 275.219C163.906 272.47 162.062 270.95 159.508 270.95C156.953 270.95 155.239 272.34 152.814 275.348H152.846Z"></path>
<path fill="#003F2D" d="M191.326 298.307C182.563 298.307 176.807 290.934 176.807 281.394C176.807 271.855 182.66 264.385 191.423 264.385C200.187 264.385 205.943 271.758 205.943 281.297C205.943 290.837 200.09 298.307 191.326 298.307ZM191.326 270.884C186.961 270.884 184.212 275.25 184.212 281.297C184.212 287.344 187.058 291.807 191.423 291.807C195.789 291.807 198.538 287.409 198.538 281.394C198.538 275.379 195.692 270.884 191.326 270.884Z"></path>
<path fill="#003F2D" d="M215.809 275.348L210.732 271.273C213.966 266.875 217.103 264.482 222.956 264.482C229.941 264.482 234.242 268.525 234.242 274.669C234.242 280.166 231.428 282.915 225.607 287.41L220.272 291.549H234.565V297.79H210.279V292.066L221.209 283.109C225.284 279.746 226.869 277.967 226.869 275.219C226.869 272.47 225.025 270.95 222.471 270.95C219.916 270.95 218.202 272.34 215.777 275.348H215.809Z"></path>
<path fill="#003F2D" d="M240.931 271.111V264.934H263.115V270.367L254.804 278.29C259.299 279.033 263.632 281.394 263.632 287.538C263.632 293.682 259.137 298.307 251.829 298.307C245.911 298.307 241.837 295.978 239.023 292.648L244.003 287.926C246.267 290.449 248.595 291.871 251.926 291.871C254.643 291.871 256.583 290.319 256.583 287.829C256.583 285.113 254.287 283.625 250.148 283.625H247.14L246.008 279.033L253.834 271.143H240.931V271.111Z"></path>
<path fill="#003F2D" d="M268.709 286.632V279.777H283.132V286.632H268.709Z"></path>
<path fill="#003F2D" d="M293.256 275.348L288.179 271.273C291.413 266.875 294.55 264.482 300.403 264.482C307.388 264.482 311.689 268.525 311.689 274.669C311.689 280.166 308.875 282.915 303.055 287.41L297.719 291.549H312.012V297.79H287.727V292.066L298.657 283.109C302.731 279.746 304.316 277.967 304.316 275.219C304.316 272.47 302.473 270.95 299.918 270.95C297.363 270.95 295.649 272.34 293.224 275.348H293.256Z"></path>
<path fill="#003F2D" d="M319.869 264.934H340.016V271.272H326.046L325.658 276.931C326.984 276.608 328.148 276.382 329.959 276.382C336.426 276.382 341.439 279.486 341.439 286.924C341.439 293.909 336.523 298.307 328.956 298.307C323.718 298.307 319.869 296.431 316.668 293.391L321.034 288.185C323.524 290.449 325.949 291.742 328.859 291.742C332.222 291.742 334.357 290.093 334.357 287.15C334.357 284.207 332.061 282.655 328.536 282.655C326.466 282.655 324.591 283.205 323.039 283.884L318.867 281.135L319.805 264.966L319.869 264.934Z"></path>
<path fill="#003F2D" d="M386.679 297.724L383.671 290.351H369.798L366.791 297.724H359.418L373.485 264.675H380.146L394.213 297.724H386.679ZM376.719 273.374L372.353 284.013H381.084L376.719 273.374Z"></path>
<path fill="#003F2D" d="M431.111 297.982H424.837L417.432 276.51L410.027 297.982H403.753L392.564 264.933H400.293L407.084 287.149L414.457 264.836H420.634L428.007 287.149L434.798 264.933H442.332L431.143 297.982H431.111Z"></path>
<path fill="#003F2D" d="M467.878 297.724L464.87 290.351H450.998L447.99 297.724H440.617L454.684 264.675H461.346L475.413 297.724H467.878ZM457.95 273.374L453.585 284.013H462.316L457.95 273.374Z"></path>
<path fill="#003F2D" d="M500.409 297.725L493.392 287.216H487.733V297.725H480.521V264.903H495.526C503.255 264.903 507.912 268.977 507.912 275.736V275.833C507.912 281.136 505.066 284.467 500.894 286.019L508.914 297.725H500.474H500.409ZM500.571 276.124C500.571 273.019 498.404 271.435 494.912 271.435H487.733V280.845H495.041C498.566 280.845 500.571 278.969 500.571 276.221V276.124Z"></path>
<path fill="#003F2D" d="M527.189 297.725H514.383V264.903H527.189C537.504 264.903 544.619 271.985 544.619 281.201V281.298C544.619 290.546 537.504 297.693 527.189 297.693V297.725ZM537.084 281.33C537.084 275.509 533.106 271.435 527.189 271.435H521.626V291.225H527.189C533.106 291.225 537.084 287.248 537.084 281.427V281.33Z"></path>
<path fill="#003F2D" d="M562.273 298.208C557.293 298.208 552.281 296.462 548.336 292.97L552.605 287.86C555.547 290.286 558.652 291.838 562.403 291.838C565.346 291.838 567.124 290.674 567.124 288.733V288.636C567.124 286.793 565.992 285.855 560.527 284.465C553.93 282.783 549.662 280.94 549.662 274.44V274.343C549.662 268.393 554.448 264.448 561.142 264.448C565.928 264.448 570.002 265.935 573.333 268.619L569.582 274.052C566.671 272.047 563.826 270.818 561.045 270.818C558.264 270.818 556.841 272.079 556.841 273.664V273.761C556.841 275.928 558.264 276.607 563.923 278.062C570.584 279.808 574.335 282.201 574.335 287.893V287.99C574.335 294.489 569.355 298.176 562.273 298.176V298.208Z"></path>
<path fill="#919195" d="M619.184 202.099H612.426V208.761H619.184V202.099Z"></path>
<path fill="#919195" d="M637.233 209.28C628.664 209.28 622.293 202.65 622.293 194.307V194.21C622.293 185.932 628.534 179.141 637.492 179.141C642.989 179.141 646.288 180.984 648.972 183.636L644.897 188.325C642.666 186.287 640.37 185.026 637.427 185.026C632.512 185.026 628.987 189.101 628.987 194.113V194.21C628.987 199.19 632.447 203.362 637.427 203.362C640.758 203.362 642.795 202.036 645.091 199.934L649.166 204.041C646.158 207.242 642.827 209.247 637.201 209.247"></path>
<path fill="#919195" d="M667.661 209.28C658.671 209.28 652.203 202.586 652.203 194.307V194.21C652.203 185.932 658.735 179.141 667.725 179.141C676.715 179.141 683.183 185.835 683.183 194.146V194.243C683.183 202.521 676.65 209.312 667.661 209.312M676.456 194.21C676.456 189.198 672.802 185.059 667.628 185.059C662.454 185.059 658.897 189.133 658.897 194.146V194.243C658.897 199.223 662.551 203.394 667.725 203.394C672.899 203.394 676.456 199.32 676.456 194.307V194.21Z"></path>
<path fill="#919195" d="M711.671 208.763V189.749L703.457 202.199H703.296L695.179 189.878V208.763H688.873V179.627H695.793L703.457 191.948L711.121 179.627H718.042V208.763H711.671Z"></path>
<path fill="#919195" d="M730.878 202.099H724.119V208.761H730.878V202.099Z"></path>
<path fill="#919195" d="M758.625 208.762L755.973 202.23H743.653L741.001 208.762H734.469L746.951 179.4H752.869L765.351 208.762H758.657H758.625ZM749.797 187.128L745.916 196.571H753.677L749.797 187.128Z"></path>
<path fill="#919195" d="M780.94 209.248C773.114 209.248 768.328 204.882 768.328 196.313V179.659H774.731V196.151C774.731 200.905 777.092 203.362 781.037 203.362C784.982 203.362 787.31 201.002 787.31 196.377V179.691H793.713V196.119C793.713 204.947 788.766 209.28 780.94 209.28"></path>
<path fill="#7AC143" d="M593.642 110.748C584.588 92.2831 568.871 79.2187 550.698 73.0098C542.969 70.3905 534.755 69.0323 526.509 69H526.412C515.417 69 504.261 71.4576 493.751 76.5993C475.254 85.7186 462.222 101.435 456.013 119.544C449.869 137.621 450.58 158.058 459.635 176.555L459.893 177.04C469.013 195.214 484.664 208.085 502.611 214.229C510.372 216.88 518.522 218.271 526.8 218.271C536.469 218.271 546.267 216.363 555.71 212.45L597.458 234.537L585.881 189.102C593.901 178.56 599.01 166.143 600.756 153.175C602.567 139.173 600.368 124.395 593.674 110.813L593.642 110.748ZM587.304 151.332C585.881 162.036 581.645 172.222 575.08 180.856L571.135 186.03L572.752 192.368L576.827 208.311L561.951 200.453L556.324 197.478L550.439 199.935C542.872 203.105 534.885 204.721 526.768 204.721C520.009 204.721 513.348 203.622 506.945 201.423C491.617 196.184 479.167 185.351 471.923 170.928L471.729 170.54C464.615 155.924 463.547 139.367 468.786 123.942C474.09 108.452 485.084 95.9697 499.701 88.7584C508.174 84.6191 517.196 82.5171 526.541 82.5171C533.268 82.5171 539.929 83.6167 546.332 85.7833C561.854 91.0867 574.369 102.081 581.515 116.698C586.851 127.531 588.856 139.529 587.336 151.332H587.304Z"></path>
<path fill="#003F2D" d="M525.182 132.932L485.989 124.622C485.989 124.622 485.277 135.196 487.218 147.743C489.416 162.004 492.23 169.054 492.23 169.054C492.23 169.054 498.18 172.32 511.503 177.623C522.53 182.053 532.878 183.703 532.878 183.703L525.182 132.9V132.932Z"></path>
<path fill="#A8D59D" d="M565.444 135.647C563.245 120.19 559.591 113.366 559.591 113.366L525.184 132.898L532.945 183.798C532.945 183.798 542.161 179.271 552.703 171.445C564.636 162.584 567.029 159.674 567.029 159.674C567.029 159.674 567.514 150.328 565.444 135.615"></path>
<path fill="#7AC143" d="M559.588 113.368C559.588 113.368 553.347 111.04 540.864 108.518C528.511 106.028 520.977 106.416 520.977 106.416C520.977 106.416 513.539 107.968 502.318 114.435C491.711 120.515 486.02 124.622 486.02 124.622L525.213 132.933L559.588 113.401V113.368Z"></path>
<path fill="#003F2D" d="M892.926 162.746H883.354L872.068 130.085L860.782 162.746H851.242L834.168 112.428H845.939L856.287 146.286L867.508 112.299H876.918L888.14 146.286L898.488 112.428H910L892.926 162.746Z"></path>
<path fill="#003F2D" d="M806.096 142.147H829.638V132.349H806.096V122.227H827.762L824.399 112.428H795.166V162.39H833.228V152.624H806.096V142.147Z"></path>
<path fill="#003F2D" d="M783.108 112.428H772.113V162.39H783.108V112.428Z"></path>
<path fill="#003F2D" d="M744.236 162.746H734.534L714.355 112.428H726.482L739.547 147.612L752.611 112.428H764.447L744.236 162.746Z"></path>
<path fill="#003F2D" d="M686.776 142.147H710.318V132.349H686.776V122.227H708.442L705.079 112.428H675.846V162.39H713.875V152.624H686.776V142.147Z"></path>
<path fill="#003F2D" d="M654.563 162.39L643.859 146.415H635.225V162.39H624.23V112.428H647.061C658.832 112.428 665.914 118.637 665.914 128.921V129.082C665.914 137.135 661.548 142.212 655.21 144.572L667.434 162.423H654.596L654.563 162.39ZM654.79 129.503C654.79 124.781 651.491 122.356 646.155 122.356H635.225V136.714H646.349C651.718 136.714 654.79 133.868 654.79 129.664V129.535V129.503Z"></path>
<path fill="#003F2D" d="M424.868 122.064V161.904H413.874V122.064H398.643V111.942H440.067V122.064H424.868Z"></path>
<path fill="#003F2D" d="M372.971 162.746C358.257 162.746 347.359 151.395 347.359 137.038V136.908C347.359 122.712 358.063 111.07 373.424 111.07C382.834 111.07 388.493 114.207 393.117 118.767L386.132 126.851C382.284 123.359 378.339 121.192 373.359 121.192C364.951 121.192 358.872 128.177 358.872 136.746V136.876C358.872 145.445 364.789 152.592 373.359 152.592C379.083 152.592 382.575 150.296 386.488 146.739L393.473 153.788C388.331 159.286 382.64 162.714 373.003 162.714"></path>
<path fill="#003F2D" d="M317.474 162.681C304.054 162.681 295.84 155.179 295.84 140.465V111.911H306.835V140.174C306.835 148.323 310.909 152.527 317.603 152.527C324.297 152.527 328.372 148.452 328.372 140.53V111.911H339.366V140.109C339.366 155.243 330.862 162.649 317.441 162.649"></path>
<path fill="#003F2D" d="M261.338 161.904H241.838V111.942H261.338C277.054 111.942 287.887 122.711 287.887 136.777V136.907C287.887 150.974 277.021 161.904 261.338 161.904ZM276.375 136.907C276.375 128.046 270.295 121.837 261.305 121.837H252.8V151.976H261.305C270.295 151.976 276.375 145.897 276.375 137.036V136.907Z"></path>
<path fill="#003F2D" d="M207.008 162.746C191.583 162.746 180.523 151.234 180.523 137.038V136.908C180.523 122.712 191.745 111.07 207.137 111.07C222.53 111.07 233.622 122.55 233.622 136.779V136.908C233.622 151.104 222.433 162.746 207.008 162.746ZM222.142 136.908C222.142 128.339 215.869 121.192 207.008 121.192C198.147 121.192 192.003 128.177 192.003 136.746V136.876C192.003 145.445 198.277 152.592 207.137 152.592C215.998 152.592 222.11 145.607 222.11 137.038V136.908H222.142Z"></path>
<path fill="#003F2D" d="M162.512 161.904L151.809 145.929H143.175V161.904H132.18V111.942H155.01C166.781 111.942 173.863 118.151 173.863 128.434V128.564C173.863 136.616 169.497 141.693 163.159 144.053L175.383 161.904H162.545H162.512ZM162.707 128.984C162.707 124.263 159.408 121.837 154.072 121.837H143.142V136.195H154.266C159.602 136.195 162.707 133.35 162.707 129.146V129.016V128.984Z"></path>
<path fill="#003F2D" d="M104.338 146.899H95.9948V161.904H85V111.942H105.405C117.338 111.942 124.549 119.024 124.549 129.21V129.34C124.549 140.917 115.559 146.899 104.338 146.899ZM113.425 129.404C113.425 124.489 109.997 121.837 104.5 121.837H95.9948V137.101H104.694C110.191 137.101 113.393 133.802 113.393 129.534V129.404H113.425Z"></path>
</svg>
